<svg xmlns="http://www.w3.org/2000/svg" xmlns:svg="http://www.w3.org/2000/svg" id="svg8" width="600" height="600" version="1.1" viewBox="0 0 600 600"><metadata id="metadata5"/><g id="layer1" transform="translate(0,258.875)"><rect id="rect4600" width="600" height="600" x="0" y="-258.875" fill="#35b9ab" fill-opacity="1" stroke="none" stroke-dasharray="none" stroke-dashoffset="0" stroke-linecap="round" stroke-linejoin="round" stroke-miterlimit="4" stroke-opacity="1" stroke-width="3" opacity="1"/><g id="g4658" transform="translate(4.5155029,5.3532257)"><rect id="rect4639" width="301.025" height="202.03" x="144.972" y="-65.243" fill="none" fill-opacity="1" stroke="#fff" stroke-dasharray="none" stroke-dashoffset="0" stroke-linecap="round" stroke-linejoin="round" stroke-miterlimit="4" stroke-opacity="1" stroke-width="6" opacity="1"/><path id="path4641" fill="none" fill-rule="evenodd" stroke="#fff" stroke-dasharray="none" stroke-linecap="butt" stroke-linejoin="miter" stroke-miterlimit="4" stroke-opacity="1" stroke-width="6" d="m 144.28571,-33.16071 h 300"/><circle id="path4643" cx="385.373" cy="-48.794" r="7.071" fill="#fff" fill-opacity="1" stroke="none" stroke-dasharray="none" stroke-dashoffset="0" stroke-linecap="round" stroke-linejoin="round" stroke-miterlimit="4" stroke-opacity="1" stroke-width="6" opacity="1"/><circle id="circle4645" cx="406.839" cy="-48.794" r="7.071" fill="#fff" fill-opacity="1" stroke="none" stroke-dasharray="none" stroke-dashoffset="0" stroke-linecap="round" stroke-linejoin="round" stroke-miterlimit="4" stroke-opacity="1" stroke-width="6" opacity="1"/><circle id="circle4647" cx="428.305" cy="-48.794" r="7.071" fill="#fff" fill-opacity="1" stroke="none" stroke-dasharray="none" stroke-dashoffset="0" stroke-linecap="round" stroke-linejoin="round" stroke-miterlimit="4" stroke-opacity="1" stroke-width="6" opacity="1"/></g><g id="text4651" fill="#fff" fill-opacity="1" stroke="none" stroke-linecap="butt" stroke-linejoin="miter" stroke-opacity="1" stroke-width="1" aria-label="{ ; }" font-family="sans-serif" font-size="9" font-style="normal" font-weight="normal" letter-spacing="0" word-spacing="0" style="line-height:30px"><path id="path5306" fill="#fff" d="m 230.83401,78.565006 h 4.928 v -4.992 h -2.624 c -5.312,0 -6.528,-0.896 -6.528,-4.48 0,-3.456 0.32,-6.528 0.32,-10.432 0,-4.864 -1.856,-6.72 -6.4,-7.488 v -0.256 c 4.544,-0.768 6.4,-2.624 6.4,-7.488 0,-3.776 -0.32,-7.04 -0.32,-10.432 0,-3.584 1.216,-4.48 6.528,-4.48 h 2.624 v -4.992 h -4.928 c -8.192,0 -11.904,2.176 -11.904,9.088 0,4.48 0.64,6.976 0.64,10.944 0,2.24 -1.856,4.608 -8.768,4.736 v 5.504 c 6.912,0.128 8.768,2.496 8.768,4.736 0,4.032 -0.64,6.4 -0.64,10.944 0,6.912 3.712,9.088 11.904,9.088 z" font-family="Source Code Pro" font-size="64" font-stretch="normal" font-style="normal" font-variant="normal" font-weight="bold" style="-inkscape-font-specification:'Source Code Pro Bold'"/><path id="path5308" fill="#fff" d="m 299.96801,48.933006 c 4.416,0 7.424,-3.264 7.424,-7.488 0,-4.224 -3.008,-7.552 -7.424,-7.552 -4.416,0 -7.424,3.328 -7.424,7.552 0,4.224 3.008,7.488 7.424,7.488 z m -5.184,33.792 c 8.832,-2.688 13.44,-8.512 13.44,-16.64 0,-6.912 -2.688,-11.008 -7.936,-11.008 -3.968,0 -7.168,2.624 -7.168,6.592 0,4.224 3.328,6.528 6.912,6.528 0.256,0 0.448,0 0.704,-0.064 0.128,3.904 -2.624,7.104 -8.32,9.088 z" font-family="Source Code Pro" font-size="64" font-stretch="normal" font-style="normal" font-variant="normal" font-weight="bold" style="-inkscape-font-specification:'Source Code Pro Bold'"/><path id="path5310" fill="#fff" d="m 364.23801,78.565006 h 4.928 c 8.192,0 11.904,-2.176 11.904,-9.088 0,-4.544 -0.704,-6.912 -0.704,-10.944 0,-2.24 1.856,-4.608 8.832,-4.736 v -5.504 c -6.976,-0.128 -8.832,-2.496 -8.832,-4.736 0,-3.968 0.704,-6.464 0.704,-10.944 0,-6.912 -3.712,-9.088 -11.904,-9.088 h -4.928 v 4.992 h 2.624 c 5.248,0 6.464,0.896 6.464,4.48 0,3.392 -0.256,6.656 -0.256,10.432 0,4.864 1.792,6.72 6.4,7.488 v 0.256 c -4.608,0.768 -6.4,2.624 -6.4,7.488 0,3.904 0.256,6.976 0.256,10.432 0,3.584 -1.216,4.48 -6.464,4.48 h -2.624 z" font-family="Source Code Pro" font-size="64" font-stretch="normal" font-style="normal" font-variant="normal" font-weight="bold" style="-inkscape-font-specification:'Source Code Pro Bold'"/></g></g></svg>