<svg xmlns="http://www.w3.org/2000/svg" xmlns:svg="http://www.w3.org/2000/svg" id="svg8" width="600" height="600" version="1.1" viewBox="0 0 600 600"><metadata id="metadata5"/><g id="layer1" transform="translate(0,258.875)"><rect id="rect4600" width="600" height="600" x="0" y="-258.875" fill="#35b9ab" fill-opacity="1" stroke="none" stroke-dasharray="none" stroke-dashoffset="0" stroke-linecap="round" stroke-linejoin="round" stroke-miterlimit="4" stroke-opacity="1" stroke-width="3" opacity="1"/><g id="g4707" transform="translate(-0.35158689,98.000096)"><circle id="path4695" cx="238.901" cy="-14.954" r="43.942" fill="#35b9ab" fill-opacity="1" stroke="#fff" stroke-dasharray="none" stroke-dashoffset="0" stroke-linecap="round" stroke-linejoin="round" stroke-miterlimit="4" stroke-opacity="1" stroke-width="6" opacity="1"/><g id="text4681" fill="#fff" fill-opacity="1" stroke="none" stroke-linecap="butt" stroke-linejoin="miter" stroke-opacity="1" stroke-width="1" aria-label="A" font-family="sans-serif" font-size="9" font-style="normal" font-weight="normal" letter-spacing="0" transform="translate(6.5190473,8.2902832)" word-spacing="0" style="line-height:30px"><path style="-inkscape-font-specification:'Open Sans'" id="path4690" fill="#fff" d="m 247.13203,-0.30654907 -5.6875,-14.53124993 h -18.3125 l -5.625,14.53124993 h -5.375 l 18.0625,-45.87499993 h 4.46875 l 17.96875,45.87499993 z m -7.34375,-19.31249993 -5.3125,-14.15625 q -1.03125,-2.6875 -2.125,-6.59375 -0.6875,3 -1.96875,6.59375 l -5.375,14.15625 z" font-family="Open Sans" font-size="64" font-stretch="normal" font-style="normal" font-variant="normal" font-weight="normal"/></g></g><g id="g4702" fill="#35b9ab" fill-opacity="1" transform="translate(-18.703127,-40.390802)"><circle id="circle4697" cx="318.703" cy="39.594" r="43.942" fill="#35b9ab" fill-opacity="1" stroke="#fff" stroke-dasharray="none" stroke-dashoffset="0" stroke-linecap="round" stroke-linejoin="round" stroke-miterlimit="4" stroke-opacity="1" stroke-width="6" opacity="1"/><g id="text4685" fill="#fff" fill-opacity="1" stroke="none" stroke-linecap="butt" stroke-linejoin="miter" stroke-opacity="1" stroke-width="1" aria-label="文" font-family="sans-serif" font-size="9" font-style="normal" font-weight="normal" letter-spacing="0" transform="translate(1.454955,-0.10343902)" word-spacing="0" style="line-height:30px"><path id="path4687" fill="#fff" fill-opacity="1" d="m 289.87317,21.07291 h 25.75 q -2.25,-3.75 -4.75,-7.25 l 4.25,-3 q 3.75,4.5 6.5,10.25 h 24.25 v 4.75 h -9.75 q -2,9.5 -6.5,16.5 -4.25,7 -7.25,8.75 9,6.75 23.75,12 l -3,5.5 q -14,-4.75 -25.25,-13.75 -10.5,7.75 -26,13.5 l -3.5,-4.75 q 15,-5.25 25.25,-12.5 -10.25,-10 -14.5,-25.25 h -9.25 z m 14.75,4.75 q 4.25,13.5 13.5,21.75 9.25,-8 12.5,-21.75 z" font-family="Open Sans" font-size="64" font-stretch="normal" font-style="normal" font-variant="normal" font-weight="normal" style="-inkscape-font-specification:'Open Sans'"/></g></g><g id="g4723" transform="translate(77.648416,65.725977)"><circle id="circle4718" cx="283.802" cy="17.32" r="43.942" fill="#35b9ab" fill-opacity="1" stroke="#fff" stroke-dasharray="none" stroke-dashoffset="0" stroke-linecap="round" stroke-linejoin="round" stroke-miterlimit="4" stroke-opacity="1" stroke-width="6" opacity="1"/><g id="text4713" fill="#fff" fill-opacity="1" stroke="none" stroke-linecap="butt" stroke-linejoin="miter" stroke-opacity="1" stroke-width="1" aria-label="ق" font-family="sans-serif" font-size="9" font-style="normal" font-weight="normal" letter-spacing="0" transform="translate(177.23101,45.406103)" word-spacing="0" style="line-height:30px"><path style="-inkscape-font-specification:'Droid Arabic Kufi'" id="path4715" fill="#fff" d="m 97.058784,0.35517025 q -7.03125,0 -11.09375,-4.15625005 -4.0625,-4.15625 -4.0625,-11.2812502 0,-8.15625 2.625,-15.09375 h 5.3125 q -2.1875,6.125 -2.1875,14.71875 0,5.1875 2.75,8.0000002 2.78125,2.8125 7.8125,2.8125 h 12.937496 q 6.25,0 9,-2.4375 2.78125,-2.40625 2.78125,-7.5000002 v -0.4375 h -5.90625 q -7.09375,0 -10.84375,-3.75 -3.71875,-3.75 -3.71875,-10.84375 0,-7.59375 4.78125,-12 4.78125,-4.4375 12.75,-4.4375 h 8.375 v 31.40625 q 0,15.00000025 -16.1875,15.00000025 z M 122.93378,-20.01983 v -21.0625 h -2.75 q -5.6875,0 -8.875,3 -3.15625,3 -3.15625,8.40625 0,5 2.15625,7.34375 2.1875,2.3125 6.59375,2.3125 z m -10.8125,-32.125 q -1.5,0 -2.5625,-0.90625 -1.03125,-0.90625 -1.03125,-2.9375 0,-2.03125 1.03125,-2.9375 1.0625,-0.90625 2.5625,-0.90625 1.625,0 2.59375,1 0.96875,0.96875 0.96875,2.84375 0,1.84375 -0.96875,2.84375 -0.9375,1 -2.59375,1 z m 11.0625,0 q -1.65625,0 -2.625,-1 -0.96875,-1 -0.96875,-2.84375 0,-1.84375 0.9375,-2.84375 0.96875,-1 2.65625,-1 1.71875,0 2.65625,1.0625 0.9375,1.03125 0.9375,2.78125 0,1.75 -0.9375,2.8125 -0.9375,1.03125 -2.65625,1.03125 z" font-family="Droid Arabic Kufi" font-size="64" font-stretch="normal" font-style="normal" font-variant="normal" font-weight="normal"/></g></g></g></svg>