<svg xmlns="http://www.w3.org/2000/svg" xmlns:svg="http://www.w3.org/2000/svg" id="svg8" width="600" height="600" version="1.1" viewBox="0 0 600 600"><metadata id="metadata5"/><g id="layer1" transform="translate(0,258.875)"><rect id="rect4600" width="600" height="600" x="0" y="-258.875" fill="#35b9ab" fill-opacity="1" stroke="none" stroke-dasharray="none" stroke-dashoffset="0" stroke-linecap="round" stroke-linejoin="round" stroke-miterlimit="4" stroke-opacity="1" stroke-width="3" opacity="1"/><path id="path5745" fill="#fff" fill-opacity="1" fill-rule="nonzero" stroke="none" stroke-width=".133" d="m 212.45904,-48.875 c -9.39877,0 -17.08758,7.690477 -17.08758,17.089037 V 8.48126 h 41.53329 V 1.900901 c 0,-5.103985 4.13812,-9.242611 9.24262,-9.242611 h 82.36482 c 5.10499,-7e-6 9.24262,4.138626 9.24262,9.242611 V 8.48126 h 41.53329 v -40.267223 c 0,-9.398567 -7.68902,-17.089037 -17.08758,-17.089037 z m -17.08758,69.231892 v 41.534749 h 41.53329 V 20.356892 Z m 142.38335,0 v 41.534749 h 41.5333 V 20.356892 Z M 195.37146,73.76874 v 40.26722 c 0,9.39838 7.68881,17.08904 17.08758,17.08904 h 149.74149 c 9.39855,0 17.08758,-7.69066 17.08758,-17.08904 V 73.76874 h -41.5333 v 6.57889 c 0,5.10489 -4.13763,9.24262 -9.24261,9.24262 h -82.36336 c -5.10449,0 -9.24408,-4.13773 -9.24408,-9.24262 v -6.57889 z m 200.07002,38.98506 c -5.06507,0 -9.18413,4.12055 -9.18413,9.18561 0,5.06506 4.11907,9.18559 9.18413,9.18559 5.06507,0 9.18705,-4.12053 9.18705,-9.18559 0,-5.06506 -4.12198,-9.18561 -9.18705,-9.18561 z m 0,2.2573 c 3.82051,0 6.92831,3.10771 6.92831,6.92831 0,3.82024 -3.1078,6.92829 -6.92831,6.92829 -3.8205,0 -6.92685,-3.10805 -6.92685,-6.92829 0,-3.8206 3.10634,-6.92831 6.92685,-6.92831 z m -3.13593,2.26752 v 8.99993 h 1.86255 v -2.95612 h 1.16958 l 1.65935,2.95612 h 2.13448 l -1.91665,-3.34355 c 0.99106,-0.43625 1.6725,-1.29859 1.6725,-2.66079 v -0.0512 c 0,-0.88815 -0.26972,-1.59447 -0.75876,-2.08332 -0.56589,-0.56608 -1.40101,-0.8611 -2.44296,-0.8611 z m 1.86255,1.68274 h 1.33771 c 0.95213,0 1.50438,0.45169 1.50438,1.35232 v 0.0132 c 0,0.80931 -0.51424,1.3494 -1.46637,1.3494 h -1.37572 z"/></g><style id="style5445"/></svg>