<svg xmlns="http://www.w3.org/2000/svg" xmlns:svg="http://www.w3.org/2000/svg" id="svg4" version="1.1" viewBox="0 0 256 256"><metadata id="metadata10"/><g id="g1085" transform="matrix(0.29265386,0,0,0.29265389,24.347057,14.994905)"><path id="path2207" fill="#173f4f" fill-opacity="1" fill-rule="evenodd" stroke="none" stroke-linecap="butt" stroke-linejoin="miter" stroke-opacity="1" stroke-width="1.471" d="m 135.81442,551.24677 170.43379,-95.86901 v 53.26057 l -117.17323,63.91266"/><path id="path3954" fill="#35b9ab" fill-opacity="1" fill-rule="evenodd" stroke="none" stroke-linecap="butt" stroke-linejoin="miter" stroke-opacity="1" stroke-width="1.471" d="m 135.81442,519.29044 136.26042,-72.91605 34.17337,9.00337 -170.43379,95.86901"/><path id="path1331" fill="#173f4f" fill-opacity="1" fill-rule="evenodd" stroke="none" stroke-linecap="butt" stroke-linejoin="miter" stroke-opacity="1" stroke-width="1.471" d="m 103.85809,561.89889 31.95633,-10.65212 V 252.98765 h -31.95633"/><path id="path2209" fill="#35b9ab" fill-opacity="1" fill-rule="evenodd" stroke="none" stroke-linecap="butt" stroke-linejoin="miter" stroke-opacity="1" stroke-width="1.471" d="m 359.50877,604.50734 -223.69435,-53.26057 -31.95633,10.65212 255.65068,63.91267"/><path id="path4030" fill="#73ba25" fill-opacity="1" fill-rule="evenodd" stroke="none" stroke-linecap="butt" stroke-linejoin="miter" stroke-opacity="1" stroke-width="1.471" d="m 61.249638,199.72708 v 394.12814 l 340.867572,85.21689 0.92776,-398.65685 z m 42.608452,53.26057 255.65068,63.91266 V 625.81156 L 103.85809,561.89889 Z"/><path id="path4037" fill="#173f4f" fill-opacity="1" fill-rule="evenodd" stroke="none" stroke-linecap="butt" stroke-linejoin="miter" stroke-opacity="1" stroke-width="1.471" d="m 647.11578,157.11864 v 404.78025 l -244.99857,117.17322 0.67357,-398.64063 z m -42.60844,74.56478 -170.43379,85.21689 v 298.25913 l 170.43379,-85.21689 z"/><path id="path5814" fill="#173f4f" fill-opacity="1" fill-rule="evenodd" stroke="none" stroke-linecap="butt" stroke-linejoin="miter" stroke-opacity="1" stroke-width="1.471" d="M 128.81174,196.26333 306.24821,114.5102 v 42.60844 L 193.04363,211.24 v 0"/><path id="path5803" fill="#35b9ab" fill-opacity="1" fill-rule="evenodd" stroke="none" stroke-linecap="butt" stroke-linejoin="miter" stroke-opacity="1" stroke-width="1.471" d="M 306.24821,93.205977 61.249638,199.72708 402.91874,280.29457 647.11578,157.11864 Z m 0,21.304223 255.65068,53.26056 -170.43378,85.21689 -262.47906,-56.74322 z"/><path id="path3964" fill="#173f4f" fill-opacity="1" fill-rule="evenodd" stroke="none" stroke-linecap="butt" stroke-linejoin="miter" stroke-opacity="1" stroke-width="1.471" d="m 306.24821,157.11864 33.40915,3.07149 -1.45281,284.53552 -31.95634,10.65211 v 0"/><path id="path5816" fill="#73ba25" fill-opacity="1" fill-rule="evenodd" stroke="none" stroke-linecap="butt" stroke-linejoin="miter" stroke-opacity="1" stroke-width="1.471" d="M 561.89889,167.77076 306.24821,114.5102 v 42.60844 l 191.73801,42.60844"/><path id="path1325" fill="#73ba25" fill-opacity="1" fill-rule="evenodd" stroke="none" stroke-linecap="butt" stroke-linejoin="miter" stroke-opacity="1" stroke-width="1.471" d="M 271.99153,446.68501 V 172.38769 l 34.25668,-15.26905 v 298.25912"/><path id="path4846" fill="#73ba25" fill-opacity="1" fill-rule="evenodd" stroke="none" stroke-linecap="butt" stroke-linejoin="miter" stroke-opacity="1" stroke-width="1.471" d="m 306.24821,455.37776 v 53.26057 l 203.53482,41.53518 64.22341,-31.33195"/><path id="path4842" fill="#35b9ab" fill-opacity="1" fill-rule="evenodd" stroke="none" stroke-linecap="butt" stroke-linejoin="miter" stroke-opacity="1" stroke-width="1.471" d="m 561.89889,497.98621 -223.69434,-53.26056 -31.95634,10.65211 255.65068,63.91268"/><path id="path2205" fill="#73ba25" fill-opacity="1" fill-rule="evenodd" stroke="none" stroke-linecap="butt" stroke-linejoin="miter" stroke-opacity="1" stroke-width="1.471" d="m 604.50734,231.68342 -42.60845,21.30423 v 266.30279 l 42.60845,10.65211"/><path id="path4848" fill="#35b9ab" fill-opacity="1" fill-rule="evenodd" stroke="none" stroke-linecap="butt" stroke-linejoin="miter" stroke-opacity="1" stroke-width="1.471" d="M 604.50734,529.94255 434.07355,615.15944 V 583.20311 L 561.89889,519.29044 Z"/></g></svg>